<?xml version="1.0" standalone="no"?>
<!DOCTYPE svg PUBLIC "-//W3C//DTD SVG 20010904//EN"
 "http://www.w3.org/TR/2001/REC-SVG-20010904/DTD/svg10.dtd">
<svg version="1.0" xmlns="http://www.w3.org/2000/svg"
 width="169.000000pt" height="276.000000pt" viewBox="0 0 169.000000 276.000000"
 preserveAspectRatio="xMidYMid meet">
<metadata>
Created by potrace 1.15, written by Peter Selinger 2001-2017
</metadata>
<g transform="translate(0.000000,276.000000) scale(0.100000,-0.100000)"
fill="#000000" stroke="none">
<path d="M482 2669 c3 -55 5 -56 80 -62 9 -1 14 -6 11 -11 -4 -5 7 -7 26 -3
23 5 30 3 25 -5 -5 -8 -2 -9 10 -5 9 4 28 0 41 -9 36 -24 55 -74 55 -148 l0
-66 113 0 c63 0 148 -3 190 -6 l77 -7 0 37 c0 22 -4 35 -10 31 -19 -12 -10 60
13 105 27 53 84 86 170 96 l57 7 -2 51 -1 51 -6 -45 -6 -45 -19 28 c-17 26
-22 27 -97 27 -115 0 -109 19 8 23 54 1 -90 4 -320 5 l-418 2 3 -51z"/>
<path d="M10 2296 c0 -33 3 -36 28 -36 76 -1 186 -26 177 -40 -3 -6 0 -7 7 -5
22 9 60 -40 69 -87 13 -66 11 -1395 -2 -1442 -14 -52 -48 -83 -103 -97 -35 -9
-44 -14 -36 -24 8 -9 4 -12 -15 -12 -15 0 -25 5 -25 14 0 10 -6 13 -16 9 -9
-3 -20 -6 -25 -6 -6 0 -7 -4 -4 -10 3 -5 2 -10 -4 -10 -5 0 -13 5 -16 10 -15
24 -35 9 -35 -25 l0 -35 470 0 470 0 -1 38 c-1 36 -2 36 -8 7 -4 -19 -9 -26
-14 -18 -7 11 -108 30 -135 24 -7 -1 -37 3 -66 9 -57 12 -104 50 -128 105 -9
22 -13 120 -16 350 l-3 320 243 0 c147 1 273 6 318 13 117 20 248 68 321 117
84 57 107 81 91 97 -7 7 -12 17 -12 22 0 6 7 3 15 -7 13 -18 14 -18 29 5 28
43 55 114 60 158 l6 45 -10 -40 c-19 -77 -41 -124 -55 -119 -11 4 -10 18 6 72
69 240 -68 467 -336 558 -43 14 -179 34 -265 39 -25 1 -49 3 -55 5 -5 1 -201
1 -433 1 -233 -1 -421 2 -419 6 3 4 -5 8 -16 9 -12 0 -30 4 -39 8 -15 7 -18 3
-18 -28z m367 -71 c47 -31 48 -41 48 -832 0 -739 0 -742 -21 -770 -12 -15 -39
-35 -60 -43 -21 -8 -41 -18 -42 -22 -2 -5 -11 -3 -20 4 -9 8 -13 8 -9 2 8 -14
-17 -26 -38 -18 -8 4 -15 15 -15 26 0 16 5 19 23 14 31 -7 65 18 83 60 21 50
16 65 -6 19 -11 -22 -17 -31 -13 -20 9 24 11 1460 2 1523 -6 41 -13 57 -27 57
-14 1 -52 26 -52 34 0 11 119 -17 147 -34z m596 25 c38 -6 81 -17 95 -25 27
-16 27 -16 2 -9 -70 19 -103 24 -191 24 -132 0 -190 -32 -210 -117 -5 -21 -9
-185 -9 -365 l0 -328 78 0 c108 0 258 17 317 36 156 50 235 170 235 359 0 161
-47 267 -160 358 -22 18 -26 24 -11 17 45 -23 113 -101 144 -168 28 -60 32
-79 35 -176 6 -159 -14 -236 -83 -321 -54 -66 -158 -112 -295 -129 -25 -4 -46
-11 -48 -16 -2 -6 -13 -10 -25 -9 -21 0 -21 1 -2 9 13 5 -23 8 -95 7 l-115 -1
95 -6 95 -6 -85 -3 c-47 -1 -96 -4 -109 -7 -50 -9 -51 -4 -51 310 1 332 11
481 34 504 14 14 16 13 24 -9 l9 -24 7 22 c22 68 150 97 319 73z m269 -51 c53
-27 105 -75 134 -124 48 -82 67 -243 43 -371 -24 -132 -97 -224 -210 -265 -33
-12 -59 -28 -59 -35 0 -19 -29 -18 -36 1 -8 20 16 49 29 36 7 -7 24 0 52 19
56 39 73 59 56 70 -9 5 -10 10 -2 14 6 4 11 1 11 -6 0 -7 9 -2 20 12 23 29 26
48 6 30 -13 -10 -13 -8 -3 14 7 14 18 26 25 26 6 0 12 3 12 8 0 4 3 18 5 32 5
22 4 23 -5 5 -7 -15 -8 -8 -3 25 10 64 5 235 -8 283 -6 23 -24 67 -39 98 -16
32 -27 59 -24 61 2 3 -8 15 -24 29 l-27 24 25 -29 c14 -17 0 -8 -32 20 -32 27
-58 52 -58 56 0 9 68 -11 112 -33z"/>
<path d="M340 2226 c0 -2 8 -21 18 -42 16 -36 17 -98 20 -748 2 -479 0 -725
-8 -759 -6 -27 -9 -52 -6 -54 2 -2 13 6 25 18 21 23 21 25 21 765 0 426 -4
753 -9 767 -10 27 -38 57 -52 57 -5 0 -9 -2 -9 -4z"/>
<path d="M1270 2161 c0 -6 4 -11 10 -11 12 0 51 -76 76 -150 15 -43 19 -83 19
-180 -1 -110 -4 -134 -28 -199 -14 -41 -25 -77 -23 -78 7 -8 65 96 75 134 33
129 21 279 -32 382 -29 58 -97 129 -97 102z"/>
<path d="M1067 1324 c-3 -4 -96 -6 -206 -5 l-201 2 0 -301 c0 -262 2 -307 17
-337 22 -47 63 -63 177 -70 120 -8 126 -11 126 -76 l0 -52 -481 3 c-390 2
-480 0 -477 -10 4 -10 79 -14 357 -16 l352 -2 -4 -83 c-7 -115 -12 -135 -43
-168 -31 -32 -106 -59 -166 -59 l-38 0 0 -55 0 -55 430 0 430 1 -2 57 -1 57
-6 -49 c-6 -49 -17 -51 -34 -5 -3 11 -23 19 -54 24 -152 22 -195 82 -199 280
-3 125 3 117 26 -38 5 -37 15 -76 21 -85 9 -15 10 -14 3 3 -4 11 -11 126 -15
255 -10 286 -15 329 -18 150 -2 -151 -14 -200 -24 -93 -9 87 -9 411 0 441 11
44 23 1 25 -93 1 -84 2 -80 11 58 9 135 20 180 30 125 2 -13 5 28 8 90 4 108
3 112 -17 112 -11 0 -23 -3 -27 -6z"/>
<path d="M460 106 c0 -114 -31 -107 470 -104 303 2 422 6 431 15 9 9 -93 12
-432 13 -244 0 -448 5 -452 9 -5 5 -7 39 -5 75 1 36 0 66 -4 66 -5 0 -8 -33
-8 -74z"/>
</g>
</svg>
